<svg xmlns="http://www.w3.org/2000/svg" viewBox="0 0 1200 1200" role="img" aria-label="בעיות שח"><rect width="1200" height="1200" rx="120" fill="#0f172a"/><rect x="120" y="120" width="960" height="960" rx="80" fill="#111827" stroke="#334155" stroke-width="20"/><g transform="translate(180 180)"><rect width="840" height="840" fill="#cbd5e1"/><g><rect x="0" y="0" width="105" height="105" fill="#64748b"/><rect x="210" y="0" width="105" height="105" fill="#64748b"/><rect x="420" y="0" width="105" height="105" fill="#64748b"/><rect x="630" y="0" width="105" height="105" fill="#64748b"/><rect x="105" y="105" width="105" height="105" fill="#64748b"/><rect x="315" y="105" width="105" height="105" fill="#64748b"/><rect x="525" y="105" width="105" height="105" fill="#64748b"/><rect x="735" y="105" width="105" height="105" fill="#64748b"/><rect x="0" y="210" width="105" height="105" fill="#64748b"/><rect x="210" y="210" width="105" height="105" fill="#64748b"/><rect x="420" y="210" width="105" height="105" fill="#64748b"/><rect x="630" y="210" width="105" height="105" fill="#64748b"/><rect x="105" y="315" width="105" height="105" fill="#64748b"/><rect x="315" y="315" width="105" height="105" fill="#64748b"/><rect x="525" y="315" width="105" height="105" fill="#64748b"/><rect x="735" y="315" width="105" height="105" fill="#64748b"/><rect x="0" y="420" width="105" height="105" fill="#64748b"/><rect x="210" y="420" width="105" height="105" fill="#64748b"/><rect x="420" y="420" width="105" height="105" fill="#64748b"/><rect x="630" y="420" width="105" height="105" fill="#64748b"/><rect x="105" y="525" width="105" height="105" fill="#64748b"/><rect x="315" y="525" width="105" height="105" fill="#64748b"/><rect x="525" y="525" width="105" height="105" fill="#64748b"/><rect x="735" y="525" width="105" height="105" fill="#64748b"/><rect x="0" y="630" width="105" height="105" fill="#64748b"/><rect x="210" y="630" width="105" height="105" fill="#64748b"/><rect x="420" y="630" width="105" height="105" fill="#64748b"/><rect x="630" y="630" width="105" height="105" fill="#64748b"/></g><circle cx="420" cy="315" r="74" fill="#f8fafc"/><path d="M390 410c35-65 125-65 160 0l36 66H354z" fill="#f8fafc"/><rect x="370" y="476" width="240" height="40" rx="20" fill="#f8fafc"/><rect x="350" y="520" width="280" height="60" rx="30" fill="#e2e8f0"/></g><text x="600" y="1040" text-anchor="middle" font-family="Arial, sans-serif" font-size="100" font-weight="700" fill="#e2e8f0">בעיות שח</text></svg>