<svg xmlns="http://www.w3.org/2000/svg" viewBox="0 0 1200 1200" role="img" aria-label="תשבצים"><rect width="1200" height="1200" rx="120" fill="#fff7ed"/><rect x="120" y="120" width="960" height="960" rx="80" fill="#ffffff" stroke="#fb923c" stroke-width="20"/><g fill="none" stroke="#fdba74" stroke-width="14"><path d="M220 240h760M220 360h760M220 480h760M220 600h760M220 720h760M220 840h760M220 960h760M240 220v760M360 220v760M480 220v760M600 220v760M720 220v760M840 220v760M960 220v760"/></g><rect x="240" y="240" width="120" height="120" fill="#fed7aa"/><rect x="360" y="360" width="120" height="120" fill="#fdba74"/><rect x="600" y="480" width="120" height="120" fill="#fb923c"/><rect x="720" y="720" width="120" height="120" fill="#fdba74"/><text x="600" y="625" text-anchor="middle" font-family="Arial, sans-serif" font-size="180" font-weight="700" fill="#9a3412" direction="rtl">תשבץ</text><text x="600" y="760" text-anchor="middle" font-family="Arial, sans-serif" font-size="72" fill="#c2410c">עברית</text></svg>