<svg xmlns="http://www.w3.org/2000/svg" viewBox="0 0 512 512" role="img" aria-label="Fitness card">
  <defs>
    <linearGradient id="bg" x1="0" x2="1" y1="0" y2="1">
      <stop offset="0%" stop-color="#d9f7d7"/>
      <stop offset="100%" stop-color="#8bd3b8"/>
    </linearGradient>
  </defs>
  <rect width="512" height="512" rx="92" fill="url(#bg)"/>
  <circle cx="258" cy="146" r="40" fill="#4b2e1f"/>
  <path d="M184 236c36-24 108-24 144 0l-20 110c-5 30-30 52-58 52h-6c-28 0-53-22-58-52z" fill="#f5c8a0"/>
  <path d="M186 258l-48 56" stroke="#4b2e1f" stroke-width="24" stroke-linecap="round"/>
  <path d="M326 258l48 56" stroke="#4b2e1f" stroke-width="24" stroke-linecap="round"/>
  <path d="M220 344l-46 82" stroke="#4b2e1f" stroke-width="26" stroke-linecap="round"/>
  <path d="M290 344l46 82" stroke="#4b2e1f" stroke-width="26" stroke-linecap="round"/>
  <path d="M180 206c28-46 124-46 152 0" fill="none" stroke="#ffffff" stroke-width="18" stroke-linecap="round" opacity="0.7"/>
  <circle cx="194" cy="138" r="14" fill="#fff" opacity="0.35"/>
</svg>
