<svg xmlns="http://www.w3.org/2000/svg" viewBox="0 0 512 512" role="img" aria-label="Humor card">
  <defs>
    <linearGradient id="bg" x1="0" x2="1" y1="0" y2="1">
      <stop offset="0%" stop-color="#fff1a8"/>
      <stop offset="100%" stop-color="#ffb86b"/>
    </linearGradient>
  </defs>
  <rect width="512" height="512" rx="92" fill="url(#bg)"/>
  <ellipse cx="164" cy="214" rx="58" ry="72" fill="#fff8e1" stroke="#5d4037" stroke-width="16"/>
  <ellipse cx="348" cy="214" rx="58" ry="72" fill="#fff8e1" stroke="#5d4037" stroke-width="16"/>
  <circle cx="146" cy="196" r="11" fill="#5d4037"/>
  <circle cx="182" cy="196" r="11" fill="#5d4037"/>
  <circle cx="330" cy="196" r="11" fill="#5d4037"/>
  <circle cx="366" cy="196" r="11" fill="#5d4037"/>
  <path d="M130 286c28 56 60 88 126 88 66 0 98-32 126-88" fill="none" stroke="#5d4037" stroke-width="20" stroke-linecap="round"/>
  <path d="M214 324c26 20 58 20 84 0" fill="none" stroke="#5d4037" stroke-width="12" stroke-linecap="round"/>
  <path d="M86 112c32-22 70-33 110-33" fill="none" stroke="#fffef0" stroke-width="16" stroke-linecap="round" opacity="0.7"/>
  <path d="M324 99c33 9 63 25 90 48" fill="none" stroke="#fffef0" stroke-width="16" stroke-linecap="round" opacity="0.7"/>
</svg>
