<svg xmlns="http://www.w3.org/2000/svg" viewBox="0 0 600 400" role="img" aria-label="לומד ולומדת עם מחברת ומחשב">
  <defs>
    <linearGradient id="bg" x1="0" y1="0" x2="1" y2="1">
      <stop offset="0%" stop-color="#eff6ff"/>
      <stop offset="100%" stop-color="#dbeafe"/>
    </linearGradient>
    <linearGradient id="desk" x1="0" y1="0" x2="0" y2="1">
      <stop offset="0%" stop-color="#f8fafc"/>
      <stop offset="100%" stop-color="#e2e8f0"/>
    </linearGradient>
  </defs>
  <rect width="600" height="400" rx="32" fill="url(#bg)"/>
  <circle cx="470" cy="92" r="42" fill="#bfdbfe" opacity="0.8"/>
  <circle cx="122" cy="84" r="30" fill="#c7d2fe" opacity="0.7"/>
  <rect x="92" y="238" width="416" height="92" rx="24" fill="url(#desk)"/>
  <rect x="272" y="205" width="126" height="84" rx="10" fill="#1e293b"/>
  <rect x="280" y="214" width="110" height="66" rx="6" fill="#93c5fd"/>
  <rect x="181" y="222" width="72" height="54" rx="8" fill="#ffffff" stroke="#cbd5e1"/>
  <path d="M196 238h42M196 250h34M196 262h28" stroke="#94a3b8" stroke-width="4" stroke-linecap="round"/>
  <circle cx="176" cy="160" r="36" fill="#f1c7a1"/>
  <path d="M147 152c10-28 44-39 72-21 8 5 13 12 14 19-2 1-8 0-12-2-7-3-12-7-18-9-6-2-13-2-18 0-10 3-18 11-26 18-5 4-9 4-12 4z" fill="#334155"/>
  <path d="M145 257c10-39 37-65 65-65s53 26 63 65" fill="#334155"/>
  <circle cx="203" cy="158" r="4" fill="#0f172a"/>
  <circle cx="183" cy="158" r="4" fill="#0f172a"/>
  <path d="M178 173c10 10 27 10 37 0" stroke="#b45309" stroke-width="4" stroke-linecap="round" fill="none"/>
  <path d="M244 259l46-22" stroke="#fb7185" stroke-width="10" stroke-linecap="round"/>
  <rect x="386" y="220" width="28" height="72" rx="12" fill="#f1c7a1"/>
  <rect x="230" y="232" width="34" height="60" rx="14" fill="#f1c7a1"/>
  <rect x="144" y="316" width="116" height="18" rx="9" fill="#64748b" opacity="0.35"/>
  <rect x="276" y="316" width="132" height="18" rx="9" fill="#64748b" opacity="0.35"/>
  <text x="300" y="368" text-anchor="middle" font-family="Arial, sans-serif" font-size="22" fill="#1d4ed8" font-weight="700">לומד / לומדת</text>
</svg>
